<?xml version="1.0" encoding="iso-8859-1"?>
<!-- Generator: Adobe Illustrator 18.0.0, SVG Export Plug-In . SVG Version: 6.00 Build 0)  -->
<!DOCTYPE svg PUBLIC "-//W3C//DTD SVG 1.1//EN" "http://www.w3.org/Graphics/SVG/1.1/DTD/svg11.dtd">
<svg version="1.1" xmlns="http://www.w3.org/2000/svg" xmlns:xlink="http://www.w3.org/1999/xlink" x="0px" y="0px"
	 viewBox="0 0 21.429 17.857" style="enable-background:new 0 0 21.429 17.857;" xml:space="preserve">
<g id="Arrows">
	<g>
		<defs>
			<rect id="SVGID_1_" width="21.429" height="17.857"/>
		</defs>
		<clipPath id="SVGID_2_">
			<use xlink:href="#SVGID_1_"  style="overflow:visible;"/>
		</clipPath>
		<path style="clip-path:url(#SVGID_2_);fill:#FFFFFF;" d="M21.429,0.892c0-0.488-0.405-0.893-0.893-0.893H0.893
			C0.405-0.001,0,0.404,0,0.892v1.786c0,0.488,0.405,0.893,0.893,0.893h19.643c0.488,0,0.893-0.405,0.893-0.893V0.892z
			 M21.429,8.035c0-0.488-0.405-0.893-0.893-0.893H0.893C0.405,7.142,0,7.547,0,8.035v1.786c0,0.488,0.405,0.893,0.893,0.893h19.643
			c0.488,0,0.893-0.405,0.893-0.893V8.035z M21.429,15.178c0-0.488-0.405-0.893-0.893-0.893H0.893C0.405,14.285,0,14.69,0,15.178
			v1.786c0,0.488,0.405,0.893,0.893,0.893h19.643c0.488,0,0.893-0.405,0.893-0.893V15.178z"/>
	</g>
</g>
</svg>
