<?xml version="1.0" encoding="iso-8859-1"?>
<!-- Generator: Adobe Illustrator 18.0.0, SVG Export Plug-In . SVG Version: 6.00 Build 0)  -->
<!DOCTYPE svg PUBLIC "-//W3C//DTD SVG 1.1//EN" "http://www.w3.org/Graphics/SVG/1.1/DTD/svg11.dtd">
<svg version="1.1" xmlns="http://www.w3.org/2000/svg" xmlns:xlink="http://www.w3.org/1999/xlink" x="0px" y="0px"
	 viewBox="0 0 42.403 41.375" style="enable-background:new 0 0 42.403 41.375;" xml:space="preserve">
<g id="Arrows">
	<g>
		<g>
			<path style="fill:#FFFFFF;" d="M42.403,35.599c0-0.195-0.162-0.357-0.357-0.357h-4.999c-0.196,0-0.357,0.162-0.357,0.357
				c0,0.095,0.039,0.184,0.106,0.251l2.499,2.5c0.067,0.067,0.157,0.106,0.251,0.106c0.095,0,0.185-0.039,0.251-0.106l2.5-2.5
				C42.364,35.784,42.403,35.694,42.403,35.599 M30.992,36.028c0.184,0.234,0.276,0.549,0.276,0.942v0.165h-2.272l-0.019-0.031
				c0.046-0.428,0.169-0.773,0.368-1.035c0.199-0.262,0.47-0.394,0.813-0.394C30.53,35.675,30.808,35.793,30.992,36.028
				 M31.833,41.149c0.453-0.151,0.819-0.341,1.098-0.571l-0.501-1.145c-0.322,0.178-0.618,0.308-0.889,0.39
				c-0.271,0.083-0.611,0.124-1.022,0.124c-0.461,0-0.826-0.145-1.095-0.436c-0.268-0.291-0.42-0.662-0.453-1.113l0.012-0.038h4.101
				v-1.009c0-0.952-0.256-1.707-0.768-2.266c-0.512-0.559-1.232-0.838-2.158-0.838c-0.944-0.004-1.696,0.324-2.257,0.984
				c-0.561,0.66-0.841,1.5-0.841,2.52v0.254c0,0.977,0.296,1.784,0.889,2.418c0.592,0.635,1.383,0.952,2.374,0.952
				C30.877,41.375,31.38,41.3,31.833,41.149 M16.034,34.375v6.868h1.847v-5.02c0.123-0.173,0.278-0.308,0.467-0.403
				c0.188-0.096,0.407-0.144,0.657-0.144c0.338,0,0.592,0.105,0.761,0.315c0.17,0.21,0.254,0.57,0.254,1.079v4.173h1.847v-4.523
				c0-0.06-0.002-0.118-0.006-0.175c-0.004-0.058-0.006-0.126-0.006-0.207c0.114-0.208,0.267-0.37,0.46-0.487
				c0.193-0.116,0.42-0.175,0.682-0.175c0.335,0,0.586,0.102,0.756,0.306c0.169,0.203,0.254,0.566,0.254,1.088v4.173h1.853v-4.158
				c0-0.956-0.196-1.668-0.587-2.136c-0.391-0.467-0.926-0.701-1.603-0.701c-0.457,0-0.855,0.104-1.193,0.311
				c-0.339,0.207-0.614,0.495-0.825,0.863c-0.161-0.393-0.398-0.687-0.711-0.882c-0.313-0.195-0.69-0.292-1.13-0.292
				c-0.436,0-0.82,0.09-1.152,0.27c-0.333,0.18-0.609,0.435-0.829,0.765l-0.076-0.908H16.034z M10.765,39.796
				c-0.152-0.14-0.228-0.324-0.228-0.552c0-0.28,0.101-0.518,0.305-0.714c0.203-0.197,0.501-0.296,0.895-0.296h1.034v0.972
				c-0.089,0.211-0.26,0.397-0.514,0.558s-0.544,0.241-0.869,0.241C11.125,40.005,10.918,39.936,10.765,39.796 M14.936,41.243
				c-0.106-0.279-0.183-0.56-0.232-0.844c-0.049-0.284-0.073-0.586-0.073-0.908v-2.837c0-0.77-0.256-1.364-0.768-1.781
				c-0.512-0.416-1.178-0.625-1.999-0.625c-0.868,0-1.568,0.211-2.101,0.632C9.229,35.3,8.977,35.8,9.007,36.381l0.006,0.038
				l1.791,0.006c0-0.258,0.081-0.46,0.244-0.606s0.394-0.219,0.695-0.219c0.338,0,0.594,0.091,0.768,0.273
				c0.174,0.182,0.26,0.438,0.26,0.768v0.546h-1.034c-0.995,0-1.751,0.185-2.27,0.555c-0.518,0.371-0.777,0.892-0.777,1.565
				c0,0.639,0.194,1.144,0.584,1.514c0.389,0.37,0.943,0.555,1.663,0.555c0.431,0,0.803-0.11,1.114-0.33
				c0.311-0.22,0.562-0.497,0.752-0.831c0.021,0.182,0.056,0.36,0.105,0.533c0.048,0.174,0.107,0.339,0.174,0.495H14.936z M7.471,32
				H5.624v6.303l-0.038,0.007L1.853,32H0v9.242h1.853v-6.309l0.038-0.007l3.733,6.316h1.847V32z"/>
		</g>
		<g>
			<rect x="5.77" y="0" style="fill:#E6E7E8;" width="30.001" height="30.001"/>
			<path style="fill:#626366;" d="M33.07,23.764c-0.769-1.2-3.352-1.944-5.909-3.01c-2.556-1.066-3.163-1.436-3.163-1.436
				l-0.023-2.452c0,0,0.958-0.736,1.255-3.045c0.599,0.174,1.228-0.893,1.261-1.455c0.034-0.542-0.082-2.044-0.812-1.894
				c0.148-1.132,0.257-2.149,0.204-2.687c-0.19-1.97-2.13-4.049-5.113-4.049s-4.924,2.079-5.113,4.049
				c-0.054,0.538,0.055,1.555,0.204,2.687c-0.731-0.15-0.847,1.352-0.814,1.894c0.035,0.562,0.663,1.629,1.263,1.455
				c0.296,2.309,1.255,3.045,1.255,3.045l-0.024,2.452c0,0-0.607,0.37-3.163,1.436c-2.557,1.066-5.14,1.81-5.909,3.01
				C7.78,24.838,7.987,30,7.987,30H20.77h12.782C33.552,30,33.759,24.838,33.07,23.764"/>
		</g>
	</g>
</g>
</svg>
