<?xml version="1.0" encoding="iso-8859-1"?>
<!-- Generator: Adobe Illustrator 18.0.0, SVG Export Plug-In . SVG Version: 6.00 Build 0)  -->
<!DOCTYPE svg PUBLIC "-//W3C//DTD SVG 1.1//EN" "http://www.w3.org/Graphics/SVG/1.1/DTD/svg11.dtd">
<svg version="1.1" xmlns="http://www.w3.org/2000/svg" xmlns:xlink="http://www.w3.org/1999/xlink" x="0px" y="0px"
	 viewBox="0 0 21.714 6.858" style="enable-background:new 0 0 21.714 6.858;" xml:space="preserve">
<g id="Arrows">
	<g>
		<path style="fill:#666666;" d="M21.714,3.429C21.714,1.536,20.179,0,18.286,0c-1.893,0-3.428,1.536-3.428,3.429
			c0,1.892,1.535,3.428,3.428,3.428C20.179,6.857,21.714,5.321,21.714,3.429 M18.286,1c1.339,0,2.429,1.089,2.429,2.429
			c0,1.339-1.09,2.428-2.429,2.428c-1.339,0-2.429-1.089-2.429-2.428C15.857,2.089,16.947,1,18.286,1"/>
		<path style="fill:#FFFFFF;" d="M6.857,3.429C6.857,1.536,5.321,0,3.429,0C1.536,0,0,1.536,0,3.429s1.536,3.429,3.429,3.429
			C5.321,6.858,6.857,5.322,6.857,3.429"/>
		<line style="fill:none;stroke:#666666;stroke-width:0.25;" x1="6.857" y1="3.429" x2="14.857" y2="3.429"/>
	</g>
</g>
</svg>
