<?xml version="1.0" encoding="utf-8"?>
<!-- Generator: Adobe Illustrator 21.1.0, SVG Export Plug-In . SVG Version: 6.00 Build 0)  -->
<svg version="1.1" id="Layer_1" xmlns="http://www.w3.org/2000/svg" xmlns:xlink="http://www.w3.org/1999/xlink" x="0px" y="0px"
	 viewBox="0 0 612 377.6" style="enable-background:new 0 0 612 377.6;" xml:space="preserve">
<style type="text/css">
	.st0{opacity:0.2;clip-path:url(#SVGID_2_);fill:#F38B00;}
	.st1{opacity:0.35;clip-path:url(#SVGID_2_);fill:#F38B00;}
	.st2{fill:#D46127;}
	.st3{fill:#8A8A8D;}
	.st4{fill:#646569;}
	.st5{fill:#F38B00;}
	.st6{fill:#FFFFFF;}
</style>
<g>
	<defs>
		<path id="SVGID_1_" d="M585.8,366.3H24.6c-8.3,0-15-6.7-15-15v-326c0-8.3,6.7-15,15-15h561.2c8.3,0,15,6.7,15,15v326
			C600.8,359.6,594.1,366.3,585.8,366.3z"/>
	</defs>
	<clipPath id="SVGID_2_">
		<use xlink:href="#SVGID_1_"  style="overflow:visible;"/>
	</clipPath>
	<polygon class="st0" points="0,384.5 619.4,134 619.4,384.5 	"/>
	<polygon class="st1" points="453.9,-13 619.4,217 619.4,-13 	"/>
</g>
<path class="st2" d="M585.8,366.3H24.6c-8.3,0-15-6.7-15-15V297c29.6,0,558.5,0,591.2,0v54.3C600.8,359.6,594.1,366.3,585.8,366.3z"
	/>
<g>
	<path class="st3" d="M585.8,10.3c8.3,0,15,6.7,15,15v326c0,8.3-6.7,15-15,15H24.6c-8.3,0-15-6.7-15-15v-326c0-8.3,6.7-15,15-15
		H585.8 M585.8,9.3H24.6c-8.8,0-16,7.2-16,16v326c0,8.8,7.2,16,16,16h561.2c8.8,0,16-7.2,16-16v-326C601.8,16.5,594.6,9.3,585.8,9.3
		L585.8,9.3z"/>
</g>
<g>
	<g>
		<path class="st4" d="M108.9,151.2h-1.1v4h-1.4v-10h2.6c2.1,0,3.4,1,3.4,2.9C112.6,150.1,111.1,151.2,108.9,151.2z M109.1,146.4
			h-1.2v3.5h1.1c1.4,0,2.2-0.6,2.2-1.8C111.2,147,110.5,146.4,109.1,146.4z"/>
		<path class="st4" d="M119.2,155.4c-2.8,0-4.6-2.1-4.6-5.2c0-3.1,1.8-5.2,4.6-5.2c2.8,0,4.6,2.1,4.6,5.2
			C123.8,153.3,122,155.4,119.2,155.4z M119.2,146.3c-2,0-3.2,1.5-3.2,3.9c0,2.4,1.2,3.9,3.2,3.9c2,0,3.2-1.5,3.2-3.9
			C122.4,147.8,121.2,146.3,119.2,146.3z"/>
		<path class="st4" d="M136.2,155.2H135l-2.7-8.1l-2.7,8.1h-1.1l-2.9-9.8l1.3-0.3l2.3,7.9l2.5-7.8h1.4l2.5,7.8l2.2-7.8h1.4
			L136.2,155.2z"/>
		<path class="st4" d="M141.6,155.2v-10h5.4v1.2h-4v2.9h3.1l0.2,1.2H143v3.4h4.2v1.2H141.6z"/>
		<path class="st4" d="M155,155.3l-3-4.3h-1v4.2h-1.4v-10h2.7c2,0,3.3,1,3.3,2.8c0,1.5-0.9,2.4-2.2,2.8l3,4.2L155,155.3z
			 M152.2,146.4h-1.3v3.4h1.2c1.3,0,2.2-0.6,2.2-1.7C154.3,147.1,153.6,146.4,152.2,146.4z"/>
		<path class="st4" d="M158.5,155.2v-10h5.4v1.2h-4v2.9h3.1l0.2,1.2h-3.3v3.4h4.2v1.2H158.5z"/>
		<path class="st4" d="M169.4,155.2h-2.8v-10h2.9c3.5,0,5.2,2.1,5.2,5C174.7,153.2,172.8,155.2,169.4,155.2z M169.5,146.5h-1.6v7.5
			h1.5c2.4,0,3.8-1.2,3.8-3.8C173.3,147.7,171.7,146.5,169.5,146.5z"/>
		<path class="st4" d="M183.7,155.2h-2.4v-10h2.4c2.2,0,3.2,1.1,3.2,2.6c0,1-0.5,1.7-1.4,2.1c1.1,0.3,1.9,1.1,1.9,2.4
			C187.4,154.3,186,155.2,183.7,155.2z M183.7,146.4h-1.1v3h1c1.3,0,2-0.6,2-1.6C185.6,147,185,146.4,183.7,146.4z M183.7,150.5
			h-1.1v3.5h1.2c1.4,0,2.3-0.6,2.3-1.7S185.2,150.5,183.7,150.5z"/>
		<path class="st4" d="M193.6,151.2v4h-1.4v-4l-3.5-5.8l1.4-0.3l2.9,4.9l2.8-4.8h1.5L193.6,151.2z"/>
	</g>
	<g>
		<g>
			<g>
				<g>
					<defs>
						<path id="SVGID_3_" d="M265.7,151.7l1.5,1.3c-0.7,1-1.6,1.7-2.9,2.1c-0.3,0.1-0.6,0.1-1,0.2c0,0,0,0,0,0h0c-0.2,0-0.4,0-0.6,0
							c-3,0-5.1-2.3-5.1-5.2v0c0-2.9,2.1-5.2,5.2-5.2c0,0,0,0,0,0l0,0c1.4,0,2.4,0.4,3.2,0.9c0.5,0.3,0.8,0.7,1.1,1.1c0,0,0,0,0,0h0
							c0,0,0,0,0,0c0,0,0.1,0.1,0.1,0.2l-1.6,1.2c-0.5-0.6-1.5-1.4-2.9-1.4v0c0,0,0,0,0,0c-1.7,0-2.9,1.4-2.9,3.1v0
							c0,1.7,1.2,3.2,2.9,3.2c0.2,0,0.3,0,0.4,0l0,0C264.4,153.1,265,152.5,265.7,151.7z M233.4,155.2c2.2,0,3.7-1.1,3.7-3.1v0
							c0-1.7-1.1-2.5-3.2-3c-1.7-0.4-2.2-0.7-2.2-1.3v0c0-0.5,0.4-0.9,1.3-0.9c0.8,0,1.7,0.4,2.6,1l1.1-1.7c-1-0.8-2.3-1.3-3.7-1.3
							c-2.1,0-3.5,1.2-3.5,3v0c0,2,1.3,2.6,3.3,3.1c1.7,0.4,2,0.7,2,1.3v0c0,0.6-0.5,0.9-1.4,0.9c-1.1,0-2.1-0.5-3-1.2l-1.3,1.6
							C230.4,154.7,231.9,155.2,233.4,155.2z M239.1,155.1h2.2v-3h1.7c2.2,0,4.1-1.2,4.1-3.5v0c0-2-1.4-3.5-3.8-3.5h-4.1V155.1z
							 M241.3,150.1V147h1.7c1.1,0,1.8,0.5,1.8,1.5v0c0,0.9-0.6,1.5-1.7,1.5H241.3z M248.5,155.1h7.6v-2h-5.4V151h4.7v-2h-4.7v-2
							h5.4v-2h-7.6V155.1z M270.4,155.1h2.2v-8h3.1v-2h-8.3v2h3.1V155.1z M276.9,155.1h2.2v-3.2h1.7l2.1,3.2h2.6l-2.4-3.6
							c1.3-0.5,2.1-1.5,2.1-3.1v0c0-0.9-0.3-1.7-0.9-2.3c-0.7-0.7-1.6-1-2.9-1h-4.6V155.1z M279.1,149.9V147h2.2
							c1.1,0,1.7,0.5,1.7,1.4v0c0,0.8-0.6,1.4-1.7,1.4H279.1z M291.5,155.2c2.7,0,4.4-1.5,4.4-4.5v-5.7h-2.2v5.7
							c0,1.6-0.8,2.4-2.2,2.4c-1.3,0-2.2-0.8-2.2-2.5v-5.7h-2.2v5.7C287.2,153.7,288.8,155.2,291.5,155.2z M298.1,155.1h2.2v-6.5
							l2.8,4.2h0.1l2.8-4.3v6.5h2.2v-10h-2.4l-2.6,4.2l-2.6-4.2h-2.4V155.1z M312.8,155.1h2.2v-4h4.1v4h2.2v-10h-2.2v4H315v-4h-2.2
							V155.1z M323.9,155.1h7.6v-2h-5.4V151h4.7v-2h-4.7v-2h5.4v-2h-7.6V155.1z M331.7,155.1h2.2l0.9-2.2h4.2l0.9,2.2h2.3l-4.3-10.1
							h-2L331.7,155.1z M335.7,150.9l1.3-3.3l1.3,3.3H335.7z M343.6,155.1h7.2v-2h-5v-8h-2.2V155.1z M352.4,155.1h2.2v-8h3.1v-2
							h-8.3v2h3.1V155.1z M358.9,155.1h2.2v-4h4.1v4h2.2v-10h-2.2v4h-4.1v-4h-2.2V155.1z"/>
					</defs>
					<use xlink:href="#SVGID_3_"  style="overflow:visible;fill:#646569;"/>
					<clipPath id="SVGID_4_">
						<use xlink:href="#SVGID_3_"  style="overflow:visible;"/>
					</clipPath>
				</g>
			</g>
		</g>
	</g>
	<path class="st5" d="M220.4,150.6c0,3.9-3.2,7.3-7.1,7.3c-3.9,0-7.3-3.3-7.3-7.3c0-3.9,3.3-7.3,7.3-7.3
		C217.2,143.3,220.4,146.7,220.4,150.6z"/>
	<rect x="208.2" y="60.5" class="st5" width="9.9" height="71.8"/>
	<path class="st3" d="M59.3,134.2c-9.6,0-19.6-3-25.8-6.5l1.7-9.7c6.7,4.3,15.5,7.7,25.1,7.7c10,0,16.2-4.3,16.2-11.5
		c0-7.1-4.3-10.3-18.5-14.1C42,95.9,35.2,90.8,35.2,78.9c0-11.2,9.6-19.4,24.4-19.4c8.5,0,15.9,2,22.3,4.9l-1.7,9.6
		c-6.5-3.5-13.8-5.6-21-5.6c-9.9,0-14.6,4.3-14.6,10.2s3.9,9,16.1,12.1c17,4.6,25.2,10,25.2,22.8C86,126.5,75.9,134.2,59.3,134.2z"
		/>
	<path class="st3" d="M127.6,134.1c-11.2,0-18.7-4.4-18.7-17.6V69.5H97.9V61H109V36.1l9.9-1.7V61h16.5l1.4,8.5h-17.9v45.2
		c0,7.3,2.9,10.5,10.6,10.5c2.3,0,5-0.5,6.7-0.8l1.5,8.4C135.5,133.4,131.9,134.1,127.6,134.1z"/>
	<path class="st3" d="M165,87.7v45.1h-10V61h7.4l2.3,14.7c5.3-8,13.7-15.9,25.5-16.2l1.7,9.4C180,69.7,169.8,78.2,165,87.7z"/>
	<path class="st3" d="M271.2,133.4h-9.4l-26.1-71.5l9.9-1.8l21.3,61L287.4,61h10.3L271.2,133.4z"/>
	<path class="st3" d="M339.6,134.4c-18.8,0-32.3-12.8-32.3-37.5c0-23.1,13.4-37.3,31-37.3c19.6,0,29,16.1,29,36v2.1h-49.9
		c0.3,17.8,8.5,28.1,22.9,28.1c9.6,0,17.9-4.3,25.4-10.6l1.5,9.1C359.9,130.3,350.6,134.4,339.6,134.4z M317.7,89.7h39.2
		c-0.9-12.9-7.1-22.2-18.7-22.2C327,67.6,319.5,75.9,317.7,89.7z"/>
	<g>
		<path class="st3" d="M367.6,68.5c-0.8,0-1.4-0.2-1.9-0.4l0.1-0.7c0.4,0.3,1.1,0.5,1.8,0.5c0.8,0,1.5-0.5,1.5-1.3
			c0-0.7-0.3-1-1.4-1.5c-1.4-0.6-1.9-1-1.9-2c0-1.1,0.9-1.8,2-1.8c0.7,0,1.2,0.2,1.6,0.4l-0.1,0.7c-0.4-0.3-0.9-0.5-1.5-0.5
			c-0.8,0-1.3,0.5-1.3,1.1c0,0.6,0.3,0.9,1.4,1.4c1.3,0.6,1.9,1.1,1.9,2.1C369.8,67.8,368.8,68.5,367.6,68.5z"/>
		<path class="st3" d="M378.2,68.4l-0.5-6.1l-2.5,6.1h-0.6l-2.5-6.1l-0.5,6.1h-0.7l0.6-7.1h0.9l2.4,6.2l2.4-6.2h0.9l0.6,7.1H378.2z"
			/>
	</g>
</g>
<g>
	<path class="st6" d="M35.8,320.3h8c5.3,0,8,2.4,8,7.2c0,2.5-0.7,4.4-2,5.6c-1.3,1.2-3.3,1.8-5.9,1.8h-4v7.8h-4.1V320.3z
		 M43.3,331.5c1.4,0,2.5-0.3,3.2-1c0.7-0.6,1-1.6,1-2.9c0-1.3-0.4-2.3-1.1-2.9c-0.7-0.6-1.8-0.9-3.2-0.9h-3.4v7.8H43.3z"/>
	<path class="st6" d="M54,326.7h3.7l0.1,1.7c0.5-0.5,1.1-1,1.8-1.4c0.7-0.4,1.5-0.6,2.3-0.6c0.3,0,0.5,0,0.7,0.1l-0.3,3.9
		c-0.4-0.1-0.9-0.2-1.4-0.2c-0.7,0-1.3,0.2-1.8,0.5c-0.6,0.3-0.9,0.7-1.2,1.1v10.9h-4V326.7z"/>
	<path class="st6" d="M67.2,341.9c-1.3-0.8-2.3-1.8-2.9-3c-0.7-1.3-1-2.7-1-4.2c0-1.5,0.3-2.9,0.9-4.1c0.6-1.2,1.5-2.2,2.7-3
		c1.2-0.7,2.6-1.1,4.2-1.1c1.5,0,2.8,0.3,3.8,0.9c1,0.6,1.8,1.5,2.3,2.5c0.5,1,0.8,2.2,0.8,3.5c0,0.6-0.1,1.4-0.3,2.2H67.4
		c0.2,1.4,0.8,2.5,1.7,3.2c0.9,0.7,2,1,3.2,1c1.7,0,3.3-0.4,4.8-1.3l0.2,3.4c-0.7,0.4-1.5,0.7-2.4,0.9c-0.9,0.2-1.9,0.3-3,0.3
		C70.1,343,68.5,342.6,67.2,341.9z M74,332.8c0-0.8-0.2-1.6-0.7-2.2c-0.5-0.6-1.2-1-2.2-1c-1,0-1.8,0.3-2.4,0.9
		c-0.6,0.6-1,1.3-1.2,2.3H74z"/>
	<path class="st6" d="M103.4,328.4c1,1.3,1.6,3.1,1.6,5.4v8.9h-4v-8.6c0-1.5-0.2-2.6-0.7-3.3c-0.5-0.7-1.2-1.1-2.3-1.1
		c-1,0-1.8,0.4-2.4,1.1c-0.5,0.7-0.8,1.7-0.8,3v8.9h-4v-8.6c0-1.5-0.2-2.6-0.7-3.3c-0.5-0.7-1.3-1.1-2.3-1.1c-1.3,0-2.3,0.5-3.1,1.4
		v11.6h-4v-16h3.4l0.1,1.3c1.5-1,3-1.5,4.7-1.5c2,0,3.6,0.7,4.6,2.2c0.6-0.7,1.3-1.2,2.2-1.6c0.9-0.4,1.9-0.6,3-0.6
		C100.8,326.4,102.4,327.1,103.4,328.4z"/>
	<path class="st6" d="M108.5,320.3h4v4h-4V320.3z M108.5,326.7h4v16h-4V326.7z"/>
	<path class="st6" d="M117.7,340.9c-1.1-1.4-1.6-3.3-1.6-5.7v-8.6h4v8.6c0,1.5,0.2,2.6,0.8,3.3c0.5,0.7,1.3,1.1,2.4,1.1
		c1.2,0,2.2-0.4,3-1.3v-11.6h4v16h-3.7l-0.1-1c-0.5,0.4-1.1,0.7-1.7,0.9c-0.6,0.2-1.3,0.4-1.9,0.4
		C120.5,343,118.7,342.3,117.7,340.9z"/>
	<path class="st6" d="M156.6,328.4c1,1.3,1.6,3.1,1.6,5.4v8.9h-4v-8.6c0-1.5-0.2-2.6-0.7-3.3c-0.5-0.7-1.2-1.1-2.3-1.1
		c-1,0-1.8,0.4-2.4,1.1c-0.5,0.7-0.8,1.7-0.8,3v8.9h-4v-8.6c0-1.5-0.2-2.6-0.7-3.3c-0.5-0.7-1.3-1.1-2.3-1.1c-1.3,0-2.3,0.5-3.1,1.4
		v11.6h-4v-16h3.4l0.1,1.3c1.5-1,3-1.5,4.7-1.5c2,0,3.6,0.7,4.6,2.2c0.6-0.7,1.3-1.2,2.2-1.6c0.9-0.4,1.9-0.6,3-0.6
		C154,326.4,155.5,327.1,156.6,328.4z"/>
	<path class="st6" d="M171.5,320.3h3.4l5.5,10.2l5.4-10.2h3.4l3.1,22.4H188l-1.9-15l-5.7,10.3l-5.8-10.3l-1.9,15h-4.3L171.5,320.3z"
		/>
	<path class="st6" d="M198.1,341.9c-1.3-0.8-2.3-1.8-2.9-3c-0.7-1.3-1-2.7-1-4.2c0-1.5,0.3-2.9,0.9-4.1c0.6-1.2,1.5-2.2,2.7-3
		c1.2-0.7,2.6-1.1,4.2-1.1c1.5,0,2.8,0.3,3.8,0.9c1,0.6,1.8,1.5,2.3,2.5c0.5,1,0.8,2.2,0.8,3.5c0,0.6-0.1,1.4-0.3,2.2h-10.3
		c0.2,1.4,0.8,2.5,1.7,3.2c0.9,0.7,2,1,3.2,1c1.7,0,3.3-0.4,4.8-1.3l0.2,3.4c-0.7,0.4-1.5,0.7-2.4,0.9c-0.9,0.2-1.9,0.3-3,0.3
		C201,343,199.4,342.6,198.1,341.9z M204.8,332.8c0-0.8-0.2-1.6-0.7-2.2c-0.5-0.6-1.2-1-2.2-1c-1,0-1.8,0.3-2.4,0.9
		c-0.6,0.6-1,1.3-1.2,2.3H204.8z"/>
	<path class="st6" d="M234.3,328.4c1,1.3,1.6,3.1,1.6,5.4v8.9h-4v-8.6c0-1.5-0.2-2.6-0.7-3.3c-0.5-0.7-1.2-1.1-2.3-1.1
		c-1,0-1.8,0.4-2.4,1.1c-0.5,0.7-0.8,1.7-0.8,3v8.9h-4v-8.6c0-1.5-0.2-2.6-0.7-3.3c-0.5-0.7-1.3-1.1-2.3-1.1c-1.3,0-2.3,0.5-3.1,1.4
		v11.6h-4v-16h3.4l0.1,1.3c1.5-1,3-1.5,4.7-1.5c2,0,3.6,0.7,4.6,2.2c0.6-0.7,1.3-1.2,2.2-1.6c0.9-0.4,1.9-0.6,3-0.6
		C231.7,326.4,233.3,327.1,234.3,328.4z"/>
	<path class="st6" d="M251.6,327.5c1.1,0.7,1.9,1.7,2.5,3s0.8,2.6,0.8,4.2s-0.3,2.9-0.8,4.2c-0.6,1.3-1.4,2.3-2.5,3
		s-2.4,1.1-3.9,1.1c-1.7,0-3.2-0.5-4.6-1.4l-0.1,1.1h-3.7v-24h4v9.2c1.3-1,2.8-1.4,4.4-1.4C249.2,326.4,250.5,326.8,251.6,327.5z
		 M249.9,338.4c0.7-0.9,1-2.1,1-3.6s-0.3-2.7-1-3.6c-0.7-0.9-1.6-1.4-2.7-1.4c-1.3,0-2.3,0.4-3,1.3s-1,2.1-1,3.7s0.3,2.8,1,3.7
		s1.7,1.3,3,1.3C248.3,339.7,249.2,339.3,249.9,338.4z"/>
	<path class="st6" d="M260.6,341.9c-1.3-0.8-2.3-1.8-2.9-3c-0.7-1.3-1-2.7-1-4.2c0-1.5,0.3-2.9,0.9-4.1c0.6-1.2,1.5-2.2,2.7-3
		c1.2-0.7,2.6-1.1,4.2-1.1c1.5,0,2.8,0.3,3.8,0.9c1,0.6,1.8,1.5,2.3,2.5c0.5,1,0.8,2.2,0.8,3.5c0,0.6-0.1,1.4-0.3,2.2h-10.3
		c0.2,1.4,0.8,2.5,1.7,3.2c0.9,0.7,2,1,3.2,1c1.7,0,3.3-0.4,4.8-1.3l0.2,3.4c-0.7,0.4-1.5,0.7-2.4,0.9c-0.9,0.2-1.9,0.3-3,0.3
		C263.5,343,261.9,342.6,260.6,341.9z M267.4,332.8c0-0.8-0.2-1.6-0.7-2.2c-0.5-0.6-1.2-1-2.2-1c-1,0-1.8,0.3-2.4,0.9
		c-0.6,0.6-1,1.3-1.2,2.3H267.4z"/>
	<path class="st6" d="M274.2,326.7h3.7l0.1,1.7c0.5-0.5,1.1-1,1.8-1.4c0.7-0.4,1.5-0.6,2.3-0.6c0.3,0,0.5,0,0.7,0.1l-0.3,3.9
		c-0.4-0.1-0.9-0.2-1.4-0.2c-0.7,0-1.3,0.2-1.8,0.5c-0.6,0.3-0.9,0.7-1.2,1.1v10.9h-4V326.7z"/>
</g>
<g>
	<path class="st6" d="M442.8,331.2h1.9l1.7,7l1.9-6.8h1.7l1.9,6.8l1.7-7h1.9l-2.7,8.8H451l-1.8-6.5l-1.9,6.5h-1.8L442.8,331.2z"/>
	<path class="st6" d="M455.9,331.2h1.9l1.7,7l1.9-6.8h1.7l1.9,6.8l1.7-7h1.9l-2.7,8.8H464l-1.8-6.5l-1.9,6.5h-1.8L455.9,331.2z"/>
	<path class="st6" d="M468.9,331.2h1.9l1.7,7l1.9-6.8h1.7l1.9,6.8l1.7-7h1.9l-2.7,8.8h-1.8l-1.8-6.5l-1.9,6.5h-1.8L468.9,331.2z"/>
	<path class="st6" d="M482.3,338.1h1.9v1.9h-1.9V338.1z"/>
	<path class="st6" d="M486.9,339.9c-0.5-0.2-0.9-0.3-1.2-0.5l0.2-1.6c0.2,0.2,0.6,0.4,1.1,0.6s1,0.3,1.6,0.3c0.6,0,1-0.1,1.3-0.3
		s0.5-0.5,0.5-0.8c0-0.4-0.2-0.7-0.5-0.9c-0.3-0.2-0.8-0.4-1.3-0.5c-0.6-0.1-1-0.3-1.4-0.5s-0.7-0.4-1-0.7c-0.3-0.3-0.4-0.8-0.4-1.3
		c0-0.8,0.3-1.4,0.8-1.9s1.4-0.8,2.5-0.8c0.5,0,1,0.1,1.3,0.2c0.4,0.1,0.7,0.2,1.1,0.4l-0.2,1.5c-0.3-0.2-0.6-0.4-1-0.6
		c-0.3-0.1-0.8-0.2-1.2-0.2c-0.5,0-0.9,0.1-1.3,0.3c-0.3,0.2-0.5,0.5-0.5,0.9c0,0.3,0.1,0.5,0.2,0.6c0.1,0.2,0.3,0.3,0.6,0.4
		c0.3,0.1,0.7,0.2,1.2,0.4c0.7,0.2,1.3,0.5,1.8,0.9s0.7,1,0.7,1.8c0,0.7-0.3,1.3-0.8,1.9c-0.5,0.5-1.4,0.8-2.6,0.8
		C488.1,340.2,487.5,340.1,486.9,339.9z"/>
	<path class="st6" d="M495,339.6c-0.4-0.4-0.6-0.9-0.6-1.5v-5.6h-1.5l0.1-1.3h1.4V329l1.6-0.2v2.3h2.3v1.3h-2.3v4.6
		c0,0.6,0,1,0.1,1.3c0.1,0.2,0.2,0.4,0.5,0.4c0.2,0.1,0.7,0.1,1.3,0.1h0.4l-0.1,1.3h-1.5C496,340.2,495.4,340,495,339.6z"/>
	<path class="st6" d="M499.8,331.2h1.3l0.2,1.5c0.5-0.6,0.9-1,1.3-1.2c0.4-0.3,0.8-0.4,1.3-0.4c0.1,0,0.3,0,0.4,0.1l-0.2,1.8
		c-0.2,0-0.3-0.1-0.5-0.1c-0.4,0-0.9,0.1-1.3,0.3c-0.4,0.2-0.7,0.4-0.9,0.7v6.2h-1.7V331.2z"/>
	<path class="st6" d="M505.5,327.4h1.6v1.8h-1.6V327.4z M505.5,331.2h1.6v8.8h-1.6V331.2z"/>
	<path class="st6" d="M508.3,331.2h1.8l2.5,7l2.4-7h1.8l-3.3,8.8h-1.8L508.3,331.2z"/>
	<path class="st6" d="M519.6,339.6c-0.7-0.4-1.3-1-1.6-1.7s-0.6-1.5-0.6-2.4c0-0.8,0.2-1.6,0.5-2.3c0.3-0.7,0.8-1.2,1.5-1.6
		c0.7-0.4,1.4-0.6,2.3-0.6c1.1,0,2,0.3,2.7,1c0.7,0.7,1.1,1.6,1.1,2.7c0,0.3,0,0.6-0.1,0.9h-6.4c0.1,1.1,0.5,2,1,2.4
		s1.3,0.7,2.3,0.7c0.9,0,1.8-0.2,2.5-0.5l0.2,1.3c-1,0.5-2,0.7-3,0.7C521.2,340.2,520.3,340,519.6,339.6z M523.9,334.5
		c0-0.6-0.2-1.1-0.5-1.5s-0.9-0.5-1.6-0.5c-0.7,0-1.2,0.2-1.6,0.5c-0.4,0.3-0.7,0.8-0.8,1.5H523.9z"/>
	<path class="st6" d="M536,335.3v1.5h-1.6v3.3h-1.7v-3.3h-6.2l6.7-9.3h1.2v7.9H536z M532.7,335.3v-4.7l-3.3,4.7H532.7z"/>
	<path class="st6" d="M538.3,339.2c-0.6-0.6-0.8-1.6-0.8-2.9v-5.1h1.6v4.7c0,1,0.2,1.7,0.5,2.2s0.8,0.7,1.6,0.7
		c0.4,0,0.8-0.1,1.2-0.3c0.4-0.2,0.6-0.4,0.8-0.8v-6.6h1.6v8.8h-1.4l-0.2-1c-0.3,0.4-0.6,0.7-1,0.9c-0.4,0.2-0.9,0.3-1.4,0.3
		C539.7,340.2,538.9,339.9,538.3,339.2z"/>
	<path class="st6" d="M546.8,338.1h1.9v1.9h-1.9V338.1z"/>
	<path class="st6" d="M552.3,339.6c-0.7-0.4-1.2-1-1.5-1.6c-0.3-0.7-0.5-1.5-0.5-2.3c0-0.9,0.2-1.6,0.5-2.3c0.3-0.7,0.9-1.2,1.5-1.6
		c0.7-0.4,1.4-0.6,2.3-0.6c0.9,0,1.7,0.2,2.3,0.6c0.7,0.4,1.2,1,1.5,1.6c0.3,0.7,0.5,1.5,0.5,2.3c0,0.9-0.2,1.6-0.5,2.3
		c-0.3,0.7-0.9,1.2-1.5,1.6s-1.4,0.6-2.3,0.6C553.7,340.2,552.9,340,552.3,339.6z M556.6,337.9c0.5-0.6,0.7-1.3,0.7-2.3
		c0-1-0.2-1.8-0.7-2.3c-0.5-0.6-1.1-0.8-2-0.8s-1.5,0.3-2,0.8c-0.5,0.6-0.7,1.3-0.7,2.3c0,1,0.2,1.8,0.7,2.3c0.5,0.6,1.1,0.8,2,0.8
		S556.2,338.5,556.6,337.9z"/>
	<path class="st6" d="M560.7,331.2h1.3l0.2,1.5c0.5-0.6,0.9-1,1.3-1.2c0.4-0.3,0.8-0.4,1.3-0.4c0.1,0,0.3,0,0.4,0.1l-0.2,1.8
		c-0.2,0-0.3-0.1-0.5-0.1c-0.4,0-0.9,0.1-1.3,0.3c-0.4,0.2-0.7,0.4-0.9,0.7v6.2h-1.7V331.2z"/>
	<path class="st6" d="M566.8,343.8c-0.8-0.5-1.2-1.1-1.2-1.9c0-0.9,0.5-1.6,1.5-2.1c-0.6-0.3-0.9-0.7-0.9-1.1c0-0.6,0.3-1,1-1.3
		c-0.5-0.3-0.9-0.7-1.1-1.2s-0.4-1.1-0.4-1.7s0.1-1.2,0.4-1.8s0.7-0.9,1.3-1.2s1.2-0.5,1.9-0.5c0.8,0,1.5,0.2,2.2,0.7
		c0.6-0.4,1.4-0.5,2.2-0.5h0.1l-0.2,1.1h-0.4c-0.1,0-0.3,0-0.5,0c-0.2,0-0.4,0.1-0.5,0.1c0.3,0.3,0.4,0.6,0.6,1
		c0.1,0.4,0.2,0.7,0.2,1.1c0,0.7-0.1,1.3-0.4,1.8c-0.3,0.5-0.7,1-1.3,1.3c-0.6,0.3-1.2,0.5-1.9,0.5c-0.4,0-0.8-0.1-1.2-0.2
		c-0.3,0.1-0.4,0.3-0.4,0.5c0,0.3,0.3,0.5,1,0.6l2.4,0.4c1,0.2,1.7,0.4,2.2,0.8c0.5,0.4,0.8,1,0.8,1.7c0,0.9-0.4,1.6-1.2,2
		c-0.8,0.5-1.8,0.7-3.2,0.7C568.6,344.5,567.5,344.3,566.8,343.8z M571.9,342.7c0.4-0.2,0.7-0.5,0.7-0.9c0-0.3-0.1-0.6-0.4-0.7
		c-0.3-0.2-0.7-0.3-1.2-0.4l-2.5-0.4c-0.4,0.2-0.7,0.4-0.9,0.6c-0.2,0.2-0.3,0.5-0.3,0.8c0,0.5,0.2,0.9,0.7,1.1s1.2,0.4,2.1,0.4
		C570.8,343.1,571.4,343,571.9,342.7z M571,336.1c0.4-0.4,0.5-0.9,0.5-1.6c0-0.6-0.2-1.2-0.5-1.6s-0.9-0.6-1.6-0.6
		c-0.7,0-1.2,0.2-1.5,0.6c-0.4,0.4-0.5,0.9-0.5,1.6c0,0.7,0.2,1.2,0.5,1.6c0.4,0.4,0.9,0.6,1.5,0.6
		C570.1,336.7,570.6,336.5,571,336.1z"/>
</g>
<g>
</g>
<g>
</g>
<g>
</g>
<g>
</g>
<g>
</g>
<g>
</g>
</svg>
